<?xml version="1.0" encoding="UTF-8"?>
<svg version="1.1" xmlns="http://www.w3.org/2000/svg" width="138" height="48">
<path d="M0 0 C3.56234428 -0.08741124 7.12441108 -0.14052896 10.6875 -0.1875 C11.69490234 -0.21263672 12.70230469 -0.23777344 13.74023438 -0.26367188 C23.1579348 -0.35691643 23.1579348 -0.35691643 27 3 C29 6 29 6 28.75 9.5625 C28 13 28 13 26 15 C26.804375 15.61875 27.60875 16.2375 28.4375 16.875 C31.01099616 19.00911877 31.82902021 19.75673267 32.2734375 22.98828125 C32.46515786 27.37572791 32.50509586 29.3405693 29.75 32.9375 C25.52101751 36.10923687 22.90357409 37.25448416 17.578125 37.1953125 C16.04091797 37.18564453 16.04091797 37.18564453 14.47265625 37.17578125 C13.40917969 37.15902344 12.34570312 37.14226563 11.25 37.125 C9.63158203 37.11146484 9.63158203 37.11146484 7.98046875 37.09765625 C5.32008722 37.07411305 2.66015664 37.04122799 0 37 C0.66 36.01 1.32 35.02 2 34 C2.23965047 31.53615097 2.37242 29.17459424 2.4140625 26.70703125 C2.43342865 26.00100266 2.4527948 25.29497406 2.4727478 24.56755066 C2.53245224 22.31598939 2.5788914 20.06437672 2.625 17.8125 C2.66318829 16.28448311 2.70224052 14.75648755 2.7421875 13.22851562 C2.83814596 9.48585065 2.92221011 5.7430849 3 2 C2.01 1.67 1.02 1.34 0 1 C0 0.67 0 0.34 0 0 Z M11 5 C11 7.97 11 10.94 11 14 C12.27875 14.020625 13.5575 14.04125 14.875 14.0625 C15.59429687 14.07410156 16.31359375 14.08570313 17.0546875 14.09765625 C19.08185404 14.12649242 19.08185404 14.12649242 21 13 C21.93391003 11.18343185 21.93391003 11.18343185 22 9 C21.19887923 6.59669834 21.19887923 6.59669834 19 5 C16.24512169 4.65292872 13.79509871 4.81671484 11 5 Z M11 19 C11 23.29 11 27.58 11 32 C17.30073734 32.43790763 17.30073734 32.43790763 23.125 30.4375 C25.36836692 28.03366111 25.36836692 28.03366111 25 24.375 C24.31742476 20.74926111 24.31742476 20.74926111 21 19 C18.48415109 18.75849227 18.48415109 18.75849227 15.8125 18.875 C14.224375 18.91625 12.63625 18.9575 11 19 Z " fill="#005D68" transform="translate(48,6)"/>
<path d="M0 0 C3.89030624 -0.78533285 7.13084953 -0.97604701 11 0 C14.72427219 3.52548843 17.25740138 7.69241572 20 12 C21.29137224 13.70372246 22.601673 15.39340482 23.9375 17.0625 C25.73157802 19.34008841 27.38873672 21.58310508 29 24 C29.05802698 20.56257082 29.09360486 17.12526747 29.125 13.6875 C29.14175781 12.71103516 29.15851563 11.73457031 29.17578125 10.72851562 C29.18222656 9.79072266 29.18867187 8.85292969 29.1953125 7.88671875 C29.20578613 7.02264404 29.21625977 6.15856934 29.22705078 5.26831055 C29.15090168 2.71819279 29.15090168 2.71819279 27 0 C30.96 0 34.92 0 39 0 C38.01 0.99 37.02 1.98 36 3 C35.66890477 5.79140762 35.51142322 8.37216688 35.48828125 11.16796875 C35.47033005 11.96278152 35.45237885 12.7575943 35.43388367 13.57649231 C35.3797303 16.11344101 35.34586972 18.65020107 35.3125 21.1875 C35.27933126 22.90822941 35.24484201 24.6289339 35.20898438 26.34960938 C35.12400127 30.56627022 35.05721458 34.78287464 35 39 C29.16564787 36.29447052 25.3519371 31.3699661 21.0625 26.6875 C20.24910156 25.80449219 19.43570313 24.92148437 18.59765625 24.01171875 C15.54327799 20.47047719 12.76075903 16.77190856 10 13 C9.97098606 16.4374823 9.95319665 19.87493312 9.9375 23.3125 C9.92912109 24.28896484 9.92074219 25.26542969 9.91210938 26.27148438 C9.90888672 27.20927734 9.90566406 28.14707031 9.90234375 29.11328125 C9.89710693 29.97735596 9.89187012 30.84143066 9.88647461 31.73168945 C9.90664477 34.16728714 9.90664477 34.16728714 11 37 C7.37 37 3.74 37 0 37 C0.66 36.01 1.32 35.02 2 34 C2.31030712 30.75002586 2.31030712 30.75002586 2.265625 27.03125 C2.26753845 26.35453247 2.2694519 25.67781494 2.27142334 24.98059082 C2.27278265 23.55167264 2.26910394 22.12274201 2.26074219 20.69384766 C2.25003846 18.50785559 2.26064544 16.32268528 2.2734375 14.13671875 C2.27211586 12.74739402 2.26955337 11.3580698 2.265625 9.96875 C2.26336914 8.70482422 2.26111328 7.44089844 2.25878906 6.13867188 C2.24177519 2.83783953 2.24177519 2.83783953 0 0 Z " fill="#005C69" transform="translate(83,6)"/>
<path d="M0 0 C0.91644287 0.00523682 1.83288574 0.01047363 2.77709961 0.01586914 C3.76645508 0.0190918 4.75581055 0.02231445 5.77514648 0.02563477 C6.81606445 0.03401367 7.85698242 0.04239258 8.92944336 0.05102539 C10.49662109 0.05779297 10.49662109 0.05779297 12.09545898 0.06469727 C14.68600996 0.07652627 17.27644895 0.0930085 19.86694336 0.11352539 C19.86694336 2.42352539 19.86694336 4.73352539 19.86694336 7.11352539 C19.16827148 7.09032227 18.46959961 7.06711914 17.74975586 7.04321289 C16.83967773 7.02516602 15.92959961 7.00711914 14.99194336 6.98852539 C14.08702148 6.96532227 13.18209961 6.94211914 12.24975586 6.91821289 C9.67887342 6.87027703 9.67887342 6.87027703 7.86694336 9.11352539 C8.73319336 8.86602539 9.59944336 8.61852539 10.49194336 8.36352539 C13.86694336 8.11352539 13.86694336 8.11352539 17.05444336 9.61352539 C19.86694336 12.11352539 19.86694336 12.11352539 20.45288086 15.78540039 C20.41325129 17.1460156 20.34202429 18.50601736 20.24194336 19.86352539 C20.21487305 20.5609082 20.18780273 21.25829102 20.15991211 21.97680664 C20.08949119 23.69038244 19.98187248 25.40235841 19.86694336 27.11352539 C16.07589743 28.10192845 15.09076861 28.2077676 11.30444336 26.61352539 C7.98668571 24.54261403 6.54645166 22.29891282 4.83569336 18.84790039 C3.3316148 16.15511458 1.06272438 14.2515227 -1.13305664 12.11352539 C-3.59875245 8.5911028 -3.37153209 5.32659174 -3.13305664 1.11352539 C-2.13305664 0.11352539 -2.13305664 0.11352539 0 0 Z M3.86694336 12.11352539 C4.86694336 15.11352539 4.86694336 15.11352539 4.86694336 15.11352539 Z " fill="#F15922" transform="translate(20.133056640625,4.886474609375)"/>
<path d="M0 0 C3.63 0 7.26 0 11 0 C10.67 0.99 10.34 1.98 10 3 C9.9042996 5.32136666 9.86926085 7.64541243 9.8671875 9.96875 C9.86623077 10.64546753 9.86527405 11.32218506 9.86428833 12.01940918 C9.86360868 13.44832451 9.86544799 14.87724296 9.86962891 16.30615234 C9.87498025 18.4919326 9.86967672 20.67750738 9.86328125 22.86328125 C9.86394207 24.25260462 9.86522331 25.64192786 9.8671875 27.03125 C9.86831543 28.29517578 9.86944336 29.55910156 9.87060547 30.86132812 C9.85614646 34.02990983 9.85614646 34.02990983 11 37 C7.37 37 3.74 37 0 37 C0 36.34 0 35.68 0 35 C0.66 35 1.32 35 2 35 C2 24.11 2 13.22 2 2 C1.34 2 0.68 2 0 2 C0 1.34 0 0.68 0 0 Z " fill="#005C67" transform="translate(127,6)"/>
<path d="M0 0 C4.62 0 9.24 0 14 0 C13.8453125 1.918125 13.8453125 1.918125 13.6875 3.875 C13.65952142 9.77848056 16.14034691 13.98260867 19 19 C19.67480623 20.3292324 20.34438518 21.66119777 21 23 C19.68 23.99 18.36 24.98 17 26 C13.27011131 24.50472168 11.48225496 22.41245203 9.0625 19.25 C6.81115192 16.31272717 4.57403367 13.52970139 2 10.875 C-0.72590664 6.95650921 -0.40386923 4.68488312 0 0 Z " fill="#F15A21" transform="translate(0,5)"/>
<path d="M0 0 C2.25968391 1.08799596 4.29924665 2.20474771 6.375 3.625 C10.80625211 5.94613206 14.26647258 5.18338185 19 4 C19 7.3 19 10.6 19 14 C14.38 14 9.76 14 5 14 C5 13.01 5 12.02 5 11 C4.195625 10.731875 3.39125 10.46375 2.5625 10.1875 C1.716875 9.795625 0.87125 9.40375 0 9 C-0.33 8.01 -0.66 7.02 -1 6 C-1.66 6 -2.32 6 -3 6 C-3.33 5.01 -3.66 4.02 -4 3 C-2.68 2.01 -1.36 1.02 0 0 Z " fill="#F15B22" transform="translate(21,29)"/>
<path d="M0 0 C4.09457279 1.3648576 5.71667285 4.21754285 8.1875 7.5625 C8.65091797 8.17802734 9.11433594 8.79355469 9.59179688 9.42773438 C10.73423225 10.94705565 11.86796157 12.47291627 13 14 C9.4647178 17.57129526 5.96407823 20.91682804 2 24 C1.34 24 0.68 24 0 24 C0 16.08 0 8.16 0 0 Z " fill="#F15A23" transform="translate(0,19)"/>
<path d="M0 0 C3.32302186 1.56377499 5.56184007 3.21353151 8 6 C8 6.66 8 7.32 8 8 C2.72 8 -2.56 8 -8 8 C-8 7.34 -8 6.68 -8 6 C-6.25 4.4921875 -6.25 4.4921875 -4 2.875 C-3.2575 2.33617187 -2.515 1.79734375 -1.75 1.2421875 C-1.1725 0.83226562 -0.595 0.42234375 0 0 Z " fill="#F05721" transform="translate(13,35)"/>
</svg>
