<?xml version="1.0" encoding="UTF-8"?>
<svg version="1.1" xmlns="http://www.w3.org/2000/svg" width="64" height="64">
<path d="M0 0 C7.13718183 4.60836021 11.55036602 10.87893084 14 19 C15.59097848 28.71440671 14.91242465 37.92305368 9.828125 46.51171875 C4.7340231 53.44535745 -1.53327484 58.08996042 -10 60 C-20.55012823 61.25596765 -29.11022539 60.41598316 -38 54 C-45.05132971 47.91126958 -49.34691979 40.91173645 -50.375 31.60546875 C-50.74076306 21.0554906 -48.63607394 13.83863209 -41.9375 5.6875 C-31.05175967 -5.5340018 -13.66264464 -8.23198913 0 0 Z M-21 14 C-21.38394667 16.77262255 -21.60342248 19.34323528 -21.6875 22.125 C-21.72166016 22.87910156 -21.75582031 23.63320313 -21.79101562 24.41015625 C-21.87354278 26.27291201 -21.93844711 28.13643326 -22 30 C-24.31 28.02 -26.62 26.04 -29 24 C-30.98 24.99 -30.98 24.99 -33 26 C-32.66489434 31.32226635 -29.77500782 33.76240471 -26.125 37.25 C-25.58230469 37.79140625 -25.03960937 38.3328125 -24.48046875 38.890625 C-22.02608339 41.29100188 -20.295867 42.90137767 -17 44 C-11.51819626 40.48449543 -5.38773471 34.56966554 -2 29 C-1.99229813 26.81569679 -1.99229813 26.81569679 -3 25 C-3.99 24.67 -4.98 24.34 -6 24 C-7.90801574 25.20129367 -7.90801574 25.20129367 -9.6875 26.9375 C-10.31011719 27.50339844 -10.93273437 28.06929687 -11.57421875 28.65234375 C-12.04472656 29.09707031 -12.51523437 29.54179688 -13 30 C-13.03738281 28.95199219 -13.07476562 27.90398438 -13.11328125 26.82421875 C-13.17894515 25.44527695 -13.24539235 24.06637229 -13.3125 22.6875 C-13.33505859 21.99720703 -13.35761719 21.30691406 -13.38085938 20.59570312 C-13.58959007 16.52910615 -13.58959007 16.52910615 -15.48046875 13.01953125 C-18.14868705 11.22928709 -17.94095587 11.96063725 -21 14 Z " fill="#32B35A" transform="translate(50,4)"/>
</svg>
