<?xml version="1.0" encoding="UTF-8"?>
<svg version="1.1" xmlns="http://www.w3.org/2000/svg" width="64" height="64">
<path d="M0 0 C8.04071716 5.46768767 14.35713546 11.78672485 16.953125 21.328125 C17.97008074 32.73931439 17.08780568 41.52074309 9.640625 50.578125 C3.75028057 56.89640044 -1.9995096 60.87830798 -10.81640625 61.6640625 C-22.23808647 61.92046185 -29.76998744 60.10045244 -38.2578125 52.1875 C-45.41707366 44.7468705 -47.46537447 37.63799487 -47.41040039 27.37304688 C-47.154444 17.46241552 -43.06295379 11.07888989 -36.046875 4.328125 C-26.55128048 -3.80505814 -11.27874483 -6.1129075 0 0 Z M-25.35546875 22.57421875 C-27.26329774 24.48204774 -29.16175078 26.39787812 -31.046875 28.328125 C-30.056875 29.978125 -29.066875 31.628125 -28.046875 33.328125 C-24.96802927 31.58067202 -22.48726113 29.88301605 -20.046875 27.328125 C-20.00820313 28.77445313 -20.00820313 28.77445313 -19.96875 30.25 C-19.91203125 31.51328125 -19.8553125 32.7765625 -19.796875 34.078125 C-19.75046875 35.33109375 -19.7040625 36.5840625 -19.65625 37.875 C-18.97537153 41.73331136 -18.06560978 42.93728705 -15.046875 45.328125 C-12.93683716 44.34426622 -12.93683716 44.34426622 -11.046875 42.328125 C-10.58905598 39.64284036 -10.35215196 37.33160786 -10.296875 34.640625 C-10.25240234 33.5877832 -10.25240234 33.5877832 -10.20703125 32.51367188 C-10.13650467 30.78577076 -10.08940432 29.0569418 -10.046875 27.328125 C-6.581875 30.298125 -6.581875 30.298125 -3.046875 33.328125 C-1.726875 32.008125 -0.406875 30.688125 0.953125 29.328125 C-3.7893477 23.75571958 -8.64788047 18.27939803 -14.046875 13.328125 C-17.60591999 13.328125 -22.92559288 20.21012633 -25.35546875 22.57421875 Z " fill="#EF9343" transform="translate(47.046875,2.671875)"/>
</svg>
