<?xml version="1.0" encoding="UTF-8"?>
<svg version="1.1" xmlns="http://www.w3.org/2000/svg" width="140" height="140">
<path d="M0 0 C2.28255595 1.70599338 4.43314365 3.49040565 6.5703125 5.375 C7.32054688 6.03113281 8.07078125 6.68726562 8.84375 7.36328125 C20.0987977 17.86927288 28.6640566 33.32616506 29.74731445 48.92358398 C30.23870581 70.55459255 27.41399358 88.54195959 12.5703125 105.375 C11.91417969 106.12523438 11.25804688 106.87546875 10.58203125 107.6484375 C0.07603962 118.9034852 -15.38085256 127.4687441 -30.97827148 128.55200195 C-52.60928005 129.04339331 -70.59664709 126.21868108 -87.4296875 111.375 C-88.17992188 110.71886719 -88.93015625 110.06273438 -89.703125 109.38671875 C-100.9581727 98.88072712 -109.5234316 83.42383494 -110.60668945 67.82641602 C-111.09808081 46.19540745 -108.27336858 28.20804041 -93.4296875 11.375 C-92.77355469 10.62476562 -92.11742188 9.87453125 -91.44140625 9.1015625 C-67.94311646 -16.07210809 -28.11920158 -18.80641135 0 0 Z M-43.6796875 23.875 C-46.25186909 26.07972708 -46.77359469 28.09453596 -47.4296875 31.375 C-47.09635417 33.70833333 -47.09635417 33.70833333 -45.4296875 35.375 C-42.41166058 36.81840418 -40.48677811 37.60990903 -37.1796875 36.875 C-34.60750591 34.67027292 -34.08578031 32.65546404 -33.4296875 29.375 C-33.76302083 27.04166667 -33.76302083 27.04166667 -35.4296875 25.375 C-38.44771442 23.93159582 -40.37259689 23.14009097 -43.6796875 23.875 Z M-43.6796875 45 C-45.87355113 46.72374999 -46.44786629 47.73919579 -47.4296875 50.375 C-47.62209362 53.19066396 -47.70999381 55.90417499 -47.6953125 58.71875 C-47.69722595 59.52485718 -47.6991394 60.33096436 -47.70111084 61.16149902 C-47.70246944 62.86271477 -47.6987957 64.563941 -47.69042969 66.26513672 C-47.67972538 68.86579729 -47.69033578 71.46576711 -47.703125 74.06640625 C-47.70180335 75.72135569 -47.69924083 77.3763047 -47.6953125 79.03125 C-47.69936096 79.80738647 -47.70340942 80.58352295 -47.70758057 81.38317871 C-47.7025668 86.71246468 -47.7025668 86.71246468 -45.4296875 91.375 C-42.37142507 92.83764725 -40.49972838 93.67223358 -37.1796875 92.75 C-34.98582387 91.02625001 -34.41150871 90.01080421 -33.4296875 87.375 C-33.23728138 84.55933604 -33.14938119 81.84582501 -33.1640625 79.03125 C-33.16119232 77.82208923 -33.16119232 77.82208923 -33.15826416 76.58850098 C-33.15690556 74.88728523 -33.1605793 73.186059 -33.16894531 71.48486328 C-33.17964962 68.88420271 -33.16903922 66.28423289 -33.15625 63.68359375 C-33.15757165 62.02864431 -33.16013417 60.3736953 -33.1640625 58.71875 C-33.16001404 57.94261353 -33.15596558 57.16647705 -33.15179443 56.36682129 C-33.1568082 51.03753532 -33.1568082 51.03753532 -35.4296875 46.375 C-38.48794993 44.91235275 -40.35964662 44.07776642 -43.6796875 45 Z " fill="#449FEF" transform="translate(110.4296875,11.625)"/>
</svg>
