<?xml version="1.0" encoding="UTF-8"?>
<svg version="1.1" xmlns="http://www.w3.org/2000/svg" width="80" height="80">
<path d="M0 0 C1.27552734 -0.02384766 2.55105469 -0.04769531 3.86523438 -0.07226562 C13.02858285 -0.05785029 13.02858285 -0.05785029 17.421875 2.578125 C19.59199927 6.52568438 19.63174685 9.45500417 19.375 13.875 C19.35244141 14.61556641 19.32988281 15.35613281 19.30664062 16.11914062 C19.2480815 17.93447357 19.15840886 19.74875681 19.0625 21.5625 C22.0325 21.2325 25.0025 20.9025 28.0625 20.5625 C27.2375 19.82 26.4125 19.0775 25.5625 18.3125 C23.0625 15.5625 23.0625 15.5625 23.0625 11.5625 C27.86417331 12.01319858 30.06442278 13.96909794 33.4375 17.3125 C34.33210938 18.17359375 35.22671875 19.0346875 36.1484375 19.921875 C38.0625 22.5625 38.0625 22.5625 38.19921875 25.02734375 C36.6419188 28.50049724 34.23569785 30.81690051 31.5 33.375 C30.97986328 33.87708984 30.45972656 34.37917969 29.92382812 34.89648438 C28.6456143 36.12779127 27.35522853 37.3464407 26.0625 38.5625 C24.7425 37.9025 23.4225 37.2425 22.0625 36.5625 C23.50503657 33.19658134 25.39514727 31.05202921 28.0625 28.5625 C25.0925 28.2325 22.1225 27.9025 19.0625 27.5625 C19.10890625 28.65949219 19.1553125 29.75648437 19.203125 30.88671875 C19.2406579 32.3411185 19.27705643 33.79554783 19.3125 35.25 C19.36277344 36.3318457 19.36277344 36.3318457 19.4140625 37.43554688 C19.42695312 38.14130859 19.43984375 38.84707031 19.453125 39.57421875 C19.47407227 40.21834717 19.49501953 40.86247559 19.51660156 41.52612305 C18.80443825 44.71975432 17.4064675 46.31440029 15.0625 48.5625 C12.00976563 49.19360352 12.00976563 49.19360352 8.46875 49.19140625 C6.55255859 49.19430664 6.55255859 49.19430664 4.59765625 49.19726562 C3.93523926 49.18477783 3.27282227 49.17229004 2.59033203 49.15942383 C0.56791971 49.125092 -1.45012363 49.13876989 -3.47265625 49.15820312 C-13.09296257 49.08539556 -13.09296257 49.08539556 -16.31640625 47.08959961 C-18.73215418 43.32372509 -18.51097068 39.95177066 -18.46875 35.5625 C-18.4725769 34.68980469 -18.47640381 33.81710938 -18.48034668 32.91796875 C-18.4830649 31.07550908 -18.47570994 29.23301076 -18.45898438 27.390625 C-18.43757248 24.57204066 -18.45878801 21.75600515 -18.484375 18.9375 C-18.48173171 17.14582771 -18.47660669 15.35415701 -18.46875 13.5625 C-18.47684692 12.72074219 -18.48494385 11.87898438 -18.49328613 11.01171875 C-18.4342166 7.32185476 -18.33795609 5.18071342 -16.30053711 2.03540039 C-11.45395366 -0.98551478 -5.53791042 -0.04742795 0 0 Z M-0.9375 22.5625 C-1.2675 23.8825 -1.5975 25.2025 -1.9375 26.5625 C4.6625 26.5625 11.2625 26.5625 18.0625 26.5625 C18.0625 25.2425 18.0625 23.9225 18.0625 22.5625 C11.7925 22.5625 5.5225 22.5625 -0.9375 22.5625 Z " fill="#F33434" transform="translate(29.9375,15.4375)"/>
</svg>
