<?xml version="1.0" encoding="UTF-8"?>
<svg version="1.1" xmlns="http://www.w3.org/2000/svg" width="72" height="72">
<path d="M0 0 C1.546875 0.8353125 1.546875 0.8353125 3.125 1.6875 C10.71537404 7.79280086 17.09288332 14.94933946 18.21875 24.94140625 C18.88209053 33.94625391 18.51105404 41.9681233 14 50 C13.443125 51.03125 12.88625 52.0625 12.3125 53.125 C6.20719914 60.71537404 -0.94933946 67.09288332 -10.94140625 68.21875 C-19.94625391 68.88209053 -27.9681233 68.51105404 -36 64 C-37.03125 63.443125 -38.0625 62.88625 -39.125 62.3125 C-46.71537404 56.20719914 -53.09288332 49.05066054 -54.21875 39.05859375 C-54.88209053 30.05374609 -54.51105404 22.0318767 -50 14 C-49.443125 12.96875 -48.88625 11.9375 -48.3125 10.875 C-36.36883269 -3.97388368 -17.30119401 -9.71710897 0 0 Z " fill="#34B45B" transform="translate(54,4)"/>
<path d="M0 0 C1.19947266 0.00515625 2.39894531 0.0103125 3.63476562 0.015625 C5.51518555 0.0465625 5.51518555 0.0465625 7.43359375 0.078125 C8.69107422 0.08328125 9.94855469 0.0884375 11.24414062 0.09375 C20.56275015 0.1739532 20.56275015 0.1739532 22.87109375 1.328125 C22.87109375 2.318125 22.87109375 3.308125 22.87109375 4.328125 C13.96109375 4.328125 5.05109375 4.328125 -4.12890625 4.328125 C-4.12890625 4.988125 -4.12890625 5.648125 -4.12890625 6.328125 C-2.82687256 6.31241455 -2.82687256 6.31241455 -1.49853516 6.29638672 C1.71808903 6.26232784 4.93462142 6.23723733 8.15136719 6.21826172 C9.54430156 6.20819623 10.93721477 6.19454266 12.33007812 6.17724609 C14.33063735 6.1530228 16.3313499 6.14271686 18.33203125 6.1328125 C20.13873291 6.11710205 20.13873291 6.11710205 21.98193359 6.10107422 C24.87109375 6.328125 24.87109375 6.328125 26.87109375 8.328125 C27.31736158 11.45358656 27.19519677 14.6119234 27.18359375 17.765625 C27.19970703 18.63767578 27.21582031 19.50972656 27.23242188 20.40820312 C27.23306641 21.24673828 27.23371094 22.08527344 27.234375 22.94921875 C27.23735596 23.7167749 27.24033691 24.48433105 27.2434082 25.27514648 C26.87109375 27.328125 26.87109375 27.328125 25.77026367 29.0769043 C22.91274102 30.95951177 20.5154281 30.71716363 17.12109375 30.7265625 C16.46657227 30.72943268 15.81205078 30.73230286 15.13769531 30.73526001 C13.75585056 30.73729868 12.37397682 30.73178246 10.9921875 30.71923828 C8.87824925 30.70317936 6.76622262 30.71909101 4.65234375 30.73828125 C3.30858953 30.73629878 1.96483651 30.73245502 0.62109375 30.7265625 C-0.6009375 30.72317871 -1.82296875 30.71979492 -3.08203125 30.71630859 C-6.12890625 30.328125 -6.12890625 30.328125 -8.02587891 29.14306641 C-9.54441285 26.64444282 -9.51717973 24.80624615 -9.52734375 21.890625 C-9.53121094 20.83101562 -9.53507812 19.77140625 -9.5390625 18.6796875 C-9.52746094 17.57367188 -9.51585938 16.46765625 -9.50390625 15.328125 C-9.51550781 14.22210938 -9.52710937 13.11609375 -9.5390625 11.9765625 C-9.53519531 10.91695312 -9.53132813 9.85734375 -9.52734375 8.765625 C-9.52395996 7.79496094 -9.52057617 6.82429688 -9.51708984 5.82421875 C-9.12890625 3.328125 -9.12890625 3.328125 -7.98706055 1.50878906 C-5.28864628 -0.20577294 -3.17818852 -0.02693577 0 0 Z " fill="#F7FCF9" transform="translate(29.12890625,22.671875)"/>
</svg>
