<?xml version="1.0" encoding="UTF-8"?>
<svg version="1.1" xmlns="http://www.w3.org/2000/svg" width="72" height="72">
<path d="M0 0 C1.546875 0.8353125 1.546875 0.8353125 3.125 1.6875 C10.71537404 7.79280086 17.09288332 14.94933946 18.21875 24.94140625 C18.88209053 33.94625391 18.51105404 41.9681233 14 50 C13.443125 51.03125 12.88625 52.0625 12.3125 53.125 C6.20719914 60.71537404 -0.94933946 67.09288332 -10.94140625 68.21875 C-19.94625391 68.88209053 -27.9681233 68.51105404 -36 64 C-37.03125 63.443125 -38.0625 62.88625 -39.125 62.3125 C-46.71537404 56.20719914 -53.09288332 49.05066054 -54.21875 39.05859375 C-54.88209053 30.05374609 -54.51105404 22.0318767 -50 14 C-49.443125 12.96875 -48.88625 11.9375 -48.3125 10.875 C-36.36883269 -3.97388368 -17.30119401 -9.71710897 0 0 Z " fill="#A27DF5" transform="translate(54,4)"/>
<path d="M0 0 C12.54 0 25.08 0 38 0 C38 4.62 38 9.24 38 14 C35.51149326 16.48850674 34.0378994 16.2461233 30.64086914 16.27789307 C29.55020142 16.27182037 29.55020142 16.27182037 28.4375 16.265625 C27.31686157 16.26849518 27.31686157 16.26849518 26.17358398 16.27142334 C24.59325829 16.27278498 23.01292142 16.26909 21.43261719 16.26074219 C19.00951078 16.250042 16.58714577 16.26063779 14.1640625 16.2734375 C12.63020669 16.2721159 11.09635135 16.2695535 9.5625 16.265625 C8.83538818 16.26967346 8.10827637 16.27372192 7.35913086 16.27789307 C2.22992361 16.22992361 2.22992361 16.22992361 0 14 C0 9.38 0 4.76 0 0 Z " fill="#FEFDFE" transform="translate(17,34)"/>
<path d="M0 0 C0.72711182 0.00404846 1.45422363 0.00809692 2.20336914 0.01226807 C2.95046143 0.01035461 3.69755371 0.00844116 4.46728516 0.00646973 C6.04761085 0.00510809 7.62794772 0.00880307 9.20825195 0.01715088 C11.63135836 0.02785107 14.05372337 0.01725527 16.47680664 0.00445557 C18.01066245 0.00577717 19.54451779 0.00833957 21.07836914 0.01226807 C21.80548096 0.0082196 22.53259277 0.00417114 23.28173828 0 C28.41094553 0.04796946 28.41094553 0.04796946 30.64086914 2.27789307 C30.64086914 3.92789307 30.64086914 5.57789307 30.64086914 7.27789307 C18.10086914 7.27789307 5.56086914 7.27789307 -7.35913086 7.27789307 C-7.35913086 0.54995187 -6.31279065 0.05903859 0 0 Z " fill="#FBF9FE" transform="translate(24.359130859375,21.72210693359375)"/>
<path d="M0 0 C1.4540625 0.0309375 1.4540625 0.0309375 2.9375 0.0625 C2.6075 1.7125 2.2775 3.3625 1.9375 5.0625 C0.2875 5.0625 -1.3625 5.0625 -3.0625 5.0625 C-3.625 3.125 -3.625 3.125 -4.0625 1.0625 C-3.0625 0.0625 -3.0625 0.0625 0 0 Z " fill="#AC8CF6" transform="translate(35.0625,40.9375)"/>
<path d="M0 0 C1.98 0 3.96 0 6 0 C6.33 1.32 6.66 2.64 7 4 C5.02 4.33 3.04 4.66 1 5 C0.67 3.35 0.34 1.7 0 0 Z " fill="#AB8AF6" transform="translate(22,41)"/>
</svg>
